<svg width="51" height="44" viewBox="0 0 51 44" fill="none" xmlns="http://www.w3.org/2000/svg">
<path d="M12.6737 0C9.18843 0 6.08337 1.45747 3.73874 3.73874C1.45747 6.02 0 9.12506 0 12.6737C0 16.159 1.45747 19.264 3.73874 21.6086L25.3474 43.2173L46.956 21.6086C49.2373 19.3274 50.6948 16.2223 50.6948 12.6737C50.6948 9.18843 49.2373 6.08337 46.956 3.73874C44.6748 1.45747 41.5697 0 38.0211 0C34.5358 0 31.4308 1.45747 29.0861 3.73874C26.8049 6.02 25.3474 9.12506 25.3474 12.6737C25.3474 9.18843 23.8899 6.08337 21.6086 3.73874C19.3274 1.45747 16.2223 0 12.6737 0Z" fill="black"></path>
</svg>
