<svg width="80" height="80" viewBox="0 0 80 80" fill="none" xmlns="http://www.w3.org/2000/svg">
<rect width="80" height="80" fill="white"></rect>
<path d="M40 10C23.4314 10 10 23.4314 10 40C10 56.5684 23.4314 70 40 70C56.5684 70 70 56.5684 70 40C70 23.4314 56.5684 10 40 10Z" stroke="black" stroke-width="9.13806" stroke-linecap="round" stroke-linejoin="round"></path>
<path d="M16.813 59.0371C16.813 59.0371 23.5 50.5 40 50.5C56.5 50.5 63.1873 59.0371 63.1873 59.0371" stroke="black" stroke-width="9.13806" stroke-linecap="round" stroke-linejoin="round"></path>
<path d="M40 40C44.9707 40 49 35.9707 49 31C49 26.0295 44.9707 22 40 22C35.0293 22 31 26.0295 31 31C31 35.9707 35.0293 40 40 40Z" stroke="black" stroke-width="9.13806" stroke-linecap="round" stroke-linejoin="round"></path>
</svg>
