<svg width="70" height="70" viewBox="0 0 70 70" fill="none" xmlns="http://www.w3.org/2000/svg">
<rect width="70" height="70" fill="#ECEBEB"/>
<path d="M22.6737 13C19.1884 13 16.0834 14.4575 13.7387 16.7387C11.4575 19.02 10 22.1251 10 25.6737C10 29.159 11.4575 32.264 13.7387 34.6086L35.3474 56.2173L56.956 34.6086C59.2373 32.3274 60.6948 29.2223 60.6948 25.6737C60.6948 22.1884 59.2373 19.0834 56.956 16.7387C54.6748 14.4575 51.5697 13 48.0211 13C44.5358 13 41.4308 14.4575 39.0861 16.7387C36.8049 19.02 35.3474 22.1251 35.3474 25.6737C35.3474 22.1884 33.8899 19.0834 31.6086 16.7387C29.3274 14.4575 26.2223 13 22.6737 13Z" fill="black"/>
</svg>
